<svg xmlns="http://www.w3.org/2000/svg" viewBox="0 0 100 100">
  <defs>
    <linearGradient id="tgGrad" x1="0%" y1="0%" x2="100%" y2="100%">
      <stop offset="0%" style="stop-color:#2AABEE"/>
      <stop offset="100%" style="stop-color:#229ED9"/>
    </linearGradient>
  </defs>
  <rect width="100" height="100" rx="20" fill="url(#tgGrad)"/>
  <path d="M70 35L45 55l-8-4c-2-1-2-3 0-4l33-13c2-1 4 1 3 3l-5 25c-1 2-3 3-5 2l-10-7-5 5c-1 1-3 1-3-1l-3-12c-1-2 1-4 3-3l10 6 12-8c1-1 1-2 0-2z" fill="white"/>
</svg>